<svg width="120" height="80" viewBox="0 0 120 80" fill="none" xmlns="http://www.w3.org/2000/svg">
<path d="M119 40C119 50.6073 112.551 60.3328 101.872 67.4522C91.1996 74.5669 76.3987 79 60 79C43.6013 79 28.8004 74.5669 18.1283 67.4522C7.44921 60.3328 1 50.6073 1 40C1 29.3927 7.44921 19.6672 18.1283 12.5478C28.8004 5.43305 43.6013 1 60 1C76.3987 1 91.1996 5.43305 101.872 12.5478C112.551 19.6672 119 29.3927 119 40Z" stroke="#04B500" stroke-width="2"/>
<circle cx="60" cy="40" r="39" stroke="#04B500" stroke-width="2"/>
<line x1="-8.74228e-08" y1="39" x2="22" y2="39" stroke="#04B500" stroke-width="2"/>
<line x1="99" y1="39" x2="120" y2="39" stroke="#04B500" stroke-width="2"/>
<path d="M37 41L54 60L83 20" stroke="#04B500" stroke-width="10"/>
</svg>
