<svg width="595" height="101" viewBox="0 0 595 101" fill="none" xmlns="http://www.w3.org/2000/svg">
<path d="M130.545 79.6516L173.294 79.6516L173.294 99.4689L103.084 99.4689L103.084 81.0671L145.55 19.9167L103.084 19.9167L103.084 0.0993652L173.294 0.0993775L173.294 18.5011L130.545 79.6516Z" fill="white"/>
<path d="M206.234 0.0993833L206.234 99.4689L182.028 99.4689L182.028 0.099379L206.234 0.0993833Z" fill="white"/>
<path d="M329.231 0.0994048L329.231 99.4689L305.026 99.4689L305.026 39.8755L282.802 99.4689L263.268 99.4689L240.903 39.734L240.903 99.4689L216.697 99.4689L216.697 0.0993851L245.291 0.0993901L273.177 68.8937L300.779 0.0993998L329.231 0.0994048Z" fill="white"/>
<path d="M363.341 0.0994107L363.341 59.5513C363.341 65.4965 364.804 70.0733 367.729 73.2818C370.654 76.4903 374.948 78.0946 380.61 78.0946C386.272 78.0946 390.613 76.4903 393.633 73.2818C396.653 70.0733 398.163 65.4965 398.163 59.5513L398.163 0.0994168L422.368 0.0994211L422.368 59.4097C422.368 68.2803 420.481 75.7826 416.706 81.9165C412.931 88.0504 407.835 92.6745 401.418 95.7886C395.096 98.9027 388.018 100.46 380.185 100.46C372.353 100.46 365.323 98.9499 359.094 95.9302C352.96 92.816 348.1 88.192 344.514 82.0581C340.928 75.8298 339.135 68.2803 339.135 59.4097L339.135 0.0994065L363.341 0.0994107Z" fill="white"/>
<path d="M503.772 0.0994353L503.772 19.4921L477.443 19.4921L477.443 99.469L453.237 99.469L453.237 19.4921L426.909 19.4921L426.909 0.0994219L503.772 0.0994353Z" fill="white"/>
<path d="M594.906 0.0994512L594.906 99.469L570.7 99.469L570.7 58.5604L533.047 58.5604L533.047 99.469L508.842 99.469L508.842 0.0994362L533.047 0.0994404L533.047 39.0263L570.7 39.0263L570.7 0.099447L594.906 0.0994512Z" fill="white"/>
<path d="M-3.05176e-05 99.3696L35.2464 7.81938e-05L65.5386 8.0842e-05L100.785 99.3696L75.0226 99.3696L50.3925 24.347L25.6209 99.3696L-3.05176e-05 99.3696Z" fill="white"/>
</svg>
